<svg xmlns="http://www.w3.org/2000/svg" viewBox="0 0 100 100"><defs><style>.cls-1{fill:#0cc;}</style></defs><g id="Layer_2" data-name="Layer 2"><path class="cls-1" d="M89.86,71.2A44.81,44.81,0,0,1,76.18,86.29l-1-.17-.35-.07h0c-.43-.07-.85-.16-1.26-.25-1.09-.22-2.17-.49-3.22-.79s-2.12-.64-3.15-1L66,83.53c-.26-.09-.51-.2-.76-.3l-.88-.38h0c-.56-.24-1.11-.5-1.66-.77L62.49,82q-.85-.42-1.68-.87c-.57-.3-1.12-.62-1.67-1l-.07,0q-.82-.48-1.62-1c-.41-.26-.82-.54-1.22-.83a6.87,6.87,0,0,1-.65-.45c-.43-.31-.85-.62-1.26-.94s-1.07-.84-1.59-1.29l-.39-.32-.64-.57-.33-.31c-.25-.23-.5-.46-.73-.69a5,5,0,0,1-.4-.39c-.31-.3-.6-.59-.88-.89l-.61-.65a2.77,2.77,0,0,1-.24-.25l-.4-.45c-.15-.15-.29-.31-.43-.48s-.55-.62-.8-1-.53-.64-.78-1l-.75-1c-.24-.33-.49-.67-.72-1s-.35-.49-.51-.74-.21-.31-.31-.46l-.55-.86c-.23-.36-.44-.71-.65-1.06s-.42-.71-.61-1.08-.4-.72-.59-1.09-.39-.73-.56-1.1-.23-.46-.33-.69-.2-.42-.29-.63a7.32,7.32,0,0,1-.35-.81.67.67,0,0,1-.06-.12l-.15-.37c-.08-.17-.14-.34-.21-.51-.19-.46-.37-.94-.55-1.42s-.28-.75-.4-1.13c-.28-.79-.52-1.6-.74-2.41-.09-.28-.17-.58-.24-.87-.13-.49-.25-1-.36-1.48-.05-.2-.09-.4-.13-.6a.29.29,0,0,1,0-.09c-.11-.52-.21-1-.29-1.54q-.07-.36-.12-.72c-.06-.36-.12-.73-.16-1.09l-.12-1a.28.28,0,0,1,0-.09.17.17,0,0,1,0-.07l0-.2c0-.2-.05-.4-.06-.59-.09-.87-.11-1.7-.14-3.18,0-2.43,0-3.49.05-4.08a18.53,18.53,0,0,1,.48-3.8,10.82,10.82,0,0,1,3.81-6.25,26.64,26.64,0,0,0-1,3.49,4.34,4.34,0,0,0-.09.52c-.09.45-.16.89-.23,1.34s-.12.91-.16,1.35-.09.93-.11,1.38a37.16,37.16,0,0,0,.33,5.73,4.51,4.51,0,0,0,.07.53,28.73,28.73,0,0,0,1.32,4.82h0a.52.52,0,0,0,.06.15l.33.77a36.36,36.36,0,0,0,2,4l.17.31c.12.18.22.36.34.52.22.34.44.66.69,1l.11.15a67,67,0,0,0,4.43,5.67,43.2,43.2,0,0,0,4.24,4c.12.11.24.2.35.29l.53.43c.67.5,1.31,1,1.88,1.35.25.17.5.34.76.5l.13.09.76.49.14.07.9.53,1,.55c.33.18.67.35,1,.52l1,.49c.33.16.68.31,1,.46.76.33,1.47.61,2.14.85l.56.2c.9.31,1.68.55,2.33.74l.85.24.07,0a43.55,43.55,0,0,0,4.68.94,68.09,68.09,0,0,0,11.4.66h.1C86.36,71.63,88.12,71.45,89.86,71.2Z"/><path class="cls-1" d="M49.78,75.54c-.38.49-.78,1-1.19,1.41s-.7.75-1.07,1.1-.54.52-.82.77v0l-.84.7-.54.44c-.47.37-1,.71-1.46,1l-.63.41c-.29.19-.59.37-.89.54-.46.27-.93.51-1.4.75a1.85,1.85,0,0,1-.29.13c-.51.25-1,.49-1.56.7-1,.42-2.07.81-3.12,1.15-.28.11-.54.19-.82.27s-.66.22-1,.3a3.22,3.22,0,0,1-.5.16c-.55.16-1.09.31-1.63.44l-1,.24a1.18,1.18,0,0,1-.27.06c-.33.08-.67.16-1,.22l-.63.13L28,86.74l-.28.05-.35,0L26.29,87a44.28,44.28,0,0,1-10.23-9.17c.36-.26.72-.52,1.07-.79.52-.39,1-.79,1.54-1.2.26-.21.52-.42.76-.63a48.66,48.66,0,0,0,4.81-4.71c.2-.21.38-.43.57-.64.67-.78,1.32-1.58,1.93-2.41.12-.14.23-.29.33-.43a.65.65,0,0,0,.1-.15c.31-.4.6-.81.88-1.23s.6-.88.88-1.34a2.42,2.42,0,0,0,.25-.4c.21-.31.4-.63.57-.94a.07.07,0,0,0,0-.06c.18-.29.36-.6.52-.9s.47-.83.69-1.25.59-1.14.86-1.71c.2-.4.38-.81.56-1.22l.08-.2c.11-.22.2-.45.3-.67l.06-.15.51-1.27,0-.09c.23-.58.44-1.17.64-1.76.4-1.18.76-2.39,1.07-3.63l.12-.11h0l.11-.1-.09.24c0,.07,0,.15,0,.22.1.45.21.9.33,1.33a.45.45,0,0,0,0,.16c.09.35.18.7.29,1s.23.79.35,1.17.26.78.38,1.16.29.83.44,1.24c.08.22.15.43.24.64a51,51,0,0,0,9.21,15.17c.27.31.54.61.82.91.53.58,1,1.1,1.5,1.57C49.19,75,49.48,75.27,49.78,75.54Z"/><path class="cls-1" d="M35.23,49.94h0l-.12.11c0-.09,0-.2.08-.29S35.22,49.88,35.23,49.94Z"/><path class="cls-1" d="M30.72,57c-.08.2-.18.39-.26.59-.38.84-.79,1.67-1.23,2.48-.18.34-.36.68-.55,1s-.48.83-.73,1.24c-.15.25-.3.51-.46.76-.27.43-.54.84-.82,1.25l-.25.36c-.13.2-.27.4-.41.59-.74,1-1.54,2.07-2.37,3.06-.16.19-.32.38-.5.57a.19.19,0,0,1-.06.07c-.38.44-.77.86-1.18,1.29s-.79.83-1.2,1.23-.72.7-1.09,1a1,1,0,0,0-.19.17c-.44.41-.9.8-1.36,1.19l-.14.11c-.27.23-.53.45-.81.67-.47.39-1,.76-1.46,1.13a43.54,43.54,0,0,1-4.1-6.58A72.76,72.76,0,0,0,30.7,57Z"/><path class="cls-1" d="M73.84,87.8a44.76,44.76,0,0,1-45,.73c.49-.09,1-.18,1.46-.29s.73-.16,1.1-.25c.62-.14,1.24-.29,1.86-.46s1.23-.34,1.85-.53q2.38-.72,4.73-1.67a27.63,27.63,0,0,0,2.64-1.24c.59-.31,1.17-.65,1.73-1,.23-.15.48-.29.71-.45.57-.39,1.13-.79,1.67-1.21l.67-.55c.25-.2.49-.41.73-.62l.35-.33a14.13,14.13,0,0,0,1-1l.32-.33c.54-.57,1.05-1.16,1.54-1.77h0l.21.19c.54.47,1.09.91,1.65,1.35l1,.73c.65.48,1.31.94,2,1.39s1,.66,1.56,1l.6.37.62.36c.5.28,1,.56,1.5.83l.35.18.78.4c.85.42,1.71.82,2.58,1.19l1,.41c.44.18.87.35,1.32.51.29.1.57.21.86.3.51.19,1,.36,1.55.51a1.52,1.52,0,0,0,.28.09c.49.15,1,.29,1.48.42.65.17,1.3.34,2,.49C72.92,87.62,73.37,87.72,73.84,87.8Z"/><path class="cls-1" d="M51.7,74.73l.64.57.39.32C52.38,75.33,52,75,51.7,74.73ZM70.35,85c1.05.3,2.13.57,3.22.79C72.48,85.58,71.4,85.31,70.35,85Zm3.22.79c.41.09.83.18,1.26.25h0C74.42,86,74,85.89,73.57,85.81Zm-22.36-9h0a1.92,1.92,0,0,0,.22.18ZM77.5,86.52l-1.32-.23c-.38.27-.76.52-1.14.77s-.79.51-1.2.74c-.47-.08-.92-.18-1.38-.28a43.83,43.83,0,0,1-42.2.72c-.49.11-1,.2-1.46.29-.44-.24-.87-.49-1.28-.75s-.83-.5-1.23-.77l-1.38.22-.11,0,1.91,1.15h0l.3.18a2.69,2.69,0,0,0,.32.19,45.73,45.73,0,0,0,47.9-.72l.31-.2,2-1.32Z"/><path class="cls-1" d="M86.63,69.66q-1.11.11-2.22.15h0a47.27,47.27,0,0,1-15.53-1.55L68,68l-1-.29-.4-.12-.47-.16-.4-.14-.47-.16a38.94,38.94,0,0,1-6.18-2.89l-.76-.45-.32-.2-.88-.57-.57-.37c-.34-.24-.78-.55-1.28-.94s-1-.77-1.51-1.21l-.42-.35L53,59.81c-.45-.39-.9-.81-1.35-1.25l-.45-.44-.47-.48c-.15-.14-.28-.29-.42-.44l-.06-.07a41.89,41.89,0,0,1-5-6.45c-.15-.22-.3-.44-.44-.68h0c-.53-.89-1.05-1.81-1.49-2.68l-.74-1.73-.14-.32,0-.06,0-.07a10,10,0,0,1-.51-1.28,13,13,0,0,1-.57-2.27c-.06-.31-.11-.63-.15-.94l0-.18L41,39.58a26.35,26.35,0,0,1-.24-2.65c0-.35,0-.7,0-1,0-.16,0-.34,0-.5v-.22c0-.14,0-.29,0-.43a18.29,18.29,0,0,1,.17-2c0-.25,0-.49.09-.73.08-.55.17-1.07.28-1.57l.18-.73.07-.25c.07-.32.16-.63.25-.94s.26-.85.41-1.27A23.08,23.08,0,0,1,43.12,25l.17-.37a26,26,0,0,1,5-7.11,17,17,0,0,1,13.22-5,19.69,19.69,0,0,0-1.61,1.4,28,28,0,0,0-.71,39.64,38.74,38.74,0,0,0,3,2.83A51.45,51.45,0,0,0,72,62.91,150.31,150.31,0,0,0,86.63,69.66Z"/><path class="cls-1" d="M40.72,35.88a4.18,4.18,0,0,1,0-.5.81.81,0,0,1,0-.22C40.73,35.4,40.72,35.64,40.72,35.88Z"/><path class="cls-1" d="M71.16,8.07A48.91,48.91,0,0,1,94.78,34.55a46.2,46.2,0,0,1-1.5,36A47.89,47.89,0,0,1,47.5,97.6,48.85,48.85,0,0,1,4.16,65.21a47.63,47.63,0,0,1-2.65-19c.19-1.6.32-3.22.57-4.81s.63-3.17,1-4.72,1-3.07,1.53-4.58l2-4.41A46,46,0,0,1,18.69,12.89,46.45,46.45,0,0,1,35.44,4.36,49.23,49.23,0,0,1,53.8,2.9,50.34,50.34,0,0,1,71.16,8.07Zm-.3.6A42.3,42.3,0,0,0,53.69,4.55,42.84,42.84,0,0,0,36.58,7.73a45.31,45.31,0,0,0-14.24,9.33A46.42,46.42,0,0,0,12.6,30.62a44.55,44.55,0,0,0-2.19,32.47,42.83,42.83,0,0,0,8,14.61A42.89,42.89,0,0,0,47.82,92.78a43.71,43.71,0,0,0,31.8-10.27A44.32,44.32,0,0,0,90.29,69a45.76,45.76,0,0,0,4.89-16.61A45,45,0,0,0,93.45,35a43.37,43.37,0,0,0-8.51-15.5c-1-1.07-2-2.19-3.08-3.23s-2.22-2-3.4-2.91S76,11.64,74.78,10.83Z"/></g></svg>