<svg xmlns="http://www.w3.org/2000/svg" viewBox="0 0 100 100"><defs><style>.cls-1{fill:#fff;}</style></defs><g id="Layer_3" data-name="Layer 3"><path class="cls-1" d="M88.22,70.28a42.27,42.27,0,0,1-13,14.17l-.93-.16L74,84.22h0q-.6-.11-1.2-.24c-1-.21-2-.46-3-.74s-2-.6-3-1c-.4-.13-.8-.28-1.18-.44a7.69,7.69,0,0,1-.72-.28L64,81.22h0c-.53-.23-1.05-.47-1.58-.72l-.14-.08c-.53-.25-1.06-.53-1.59-.81s-1.06-.58-1.58-.89l-.07,0c-.52-.3-1-.61-1.53-1s-.77-.51-1.15-.78c-.21-.13-.41-.28-.62-.43-.41-.29-.8-.58-1.19-.88s-1-.79-1.51-1.21l-.36-.31-.61-.53-.31-.29c-.24-.21-.47-.43-.7-.65s-.26-.24-.38-.37c-.28-.27-.56-.55-.82-.83l-.58-.6-.23-.25a4.83,4.83,0,0,1-.37-.42,5.62,5.62,0,0,1-.41-.44c-.26-.3-.52-.59-.77-.9s-.49-.6-.73-.91-.47-.61-.71-.92-.47-.62-.68-1-.34-.46-.49-.69l-.29-.43-.52-.81c-.22-.34-.41-.67-.61-1s-.4-.67-.58-1-.38-.68-.56-1-.37-.69-.53-1-.21-.43-.31-.64-.19-.4-.27-.59a7.35,7.35,0,0,1-.34-.76l0-.12c-.06-.12-.1-.23-.15-.35s-.13-.31-.19-.47c-.18-.44-.36-.89-.53-1.34s-.26-.7-.37-1.06c-.27-.74-.5-1.5-.71-2.26-.08-.27-.15-.54-.22-.82-.13-.46-.24-.92-.34-1.38a5.78,5.78,0,0,1-.12-.57.24.24,0,0,1,0-.09c-.11-.48-.2-1-.28-1.44l-.12-.67c-.05-.34-.1-.69-.14-1s-.08-.63-.12-.94a.22.22,0,0,1,0-.08.2.2,0,0,1,0-.07l0-.19c0-.19,0-.38-.07-.55-.08-.82-.09-1.6-.12-3,0-2.28,0-3.27,0-3.82a18.86,18.86,0,0,1,.45-3.58,11,11,0,0,1,2.31-4.61,10.34,10.34,0,0,1,1.31-1.25,23.44,23.44,0,0,0-.94,3.27,3.86,3.86,0,0,0-.09.49c-.08.42-.15.84-.22,1.26s-.11.85-.15,1.27-.08.87-.1,1.3a34.33,34.33,0,0,0,.31,5.38c0,.17,0,.33.07.49a26.25,26.25,0,0,0,1.24,4.53h0l.07.14.3.71A34.91,34.91,0,0,0,43.85,51c0,.1.11.19.16.28s.21.34.32.5c.2.32.42.61.65.93l.1.15a66.83,66.83,0,0,0,4.2,5.31,41.92,41.92,0,0,0,4,3.76l.33.27c.18.14.35.26.51.4.63.47,1.23.9,1.77,1.27l.72.47.13.08.72.46.13.07c.28.17.56.34.85.5l.94.51c.31.17.63.33,1,.49l1,.45c.31.16.64.3,1,.44.72.31,1.4.57,2,.8l.53.19c.85.29,1.59.51,2.21.69l.8.23h.06a41.84,41.84,0,0,0,4.43.89,64.1,64.1,0,0,0,10.8.61h.09C84.9,70.68,86.57,70.51,88.22,70.28Z"/><path class="cls-1" d="M50.28,74.36c-.36.45-.74.89-1.12,1.32s-.66.7-1,1-.52.49-.78.72l0,0c-.26.22-.52.45-.79.66l-.51.41c-.44.35-.9.67-1.38,1-.19.14-.39.26-.6.39s-.55.35-.84.51-.88.48-1.33.7l-.27.13c-.48.23-1,.45-1.47.65-1,.39-2,.76-3,1.08a7.66,7.66,0,0,1-.77.25c-.32.11-.63.21-.94.29a4.42,4.42,0,0,1-.48.15c-.51.14-1,.29-1.54.41l-.94.23-.25,0c-.31.08-.64.15-1,.21s-.41.08-.61.12l-1.05.2-.27,0-.32,0-1,.17a42.18,42.18,0,0,1-9.69-8.62c.35-.24.69-.48,1-.74.5-.37,1-.74,1.46-1.13.24-.19.49-.39.71-.59a44.32,44.32,0,0,0,4.56-4.42c.19-.2.36-.4.54-.6.63-.73,1.25-1.48,1.83-2.26.11-.13.22-.28.31-.41l.1-.13c.28-.38.56-.76.82-1.16s.57-.83.84-1.26c.09-.12.16-.25.24-.37.2-.3.38-.59.54-.89,0,0,0,0,0,0,.17-.28.35-.56.5-.85s.44-.78.65-1.17.56-1.07.81-1.61c.19-.37.36-.76.53-1.14l.08-.19c.1-.21.19-.42.28-.64l0-.13c.17-.39.33-.79.49-1.2l0-.08c.21-.54.41-1.1.6-1.65.39-1.11.72-2.24,1-3.4l.11-.11h0l.11-.1-.09.23c0,.07,0,.14,0,.21.09.42.2.84.31,1.25a.35.35,0,0,0,0,.14q.12.5.27,1c.11.36.22.74.34,1.09s.24.73.36,1.09.27.78.41,1.17c.07.2.14.4.23.6a48,48,0,0,0,8.72,14.24c.25.29.51.57.77.85.51.54,1,1,1.42,1.47Q49.86,74,50.28,74.36Z"/><path class="cls-1" d="M36.51,50.32h0l-.11.11c0-.09,0-.19.07-.28S36.5,50.27,36.51,50.32Z"/><path class="cls-1" d="M32.25,56.9c-.08.19-.17.38-.26.56-.36.79-.74,1.57-1.16,2.33-.17.32-.34.64-.52,1s-.45.77-.69,1.16-.28.48-.44.71c-.25.41-.5.8-.77,1.18a3.53,3.53,0,0,1-.24.34l-.38.55q-1.07,1.49-2.25,2.88c-.15.17-.3.35-.47.53a.12.12,0,0,1-.06.06c-.36.42-.73.82-1.11,1.22s-.75.78-1.14,1.15-.68.66-1,1l-.18.16c-.41.38-.84.75-1.28,1.11l-.13.11c-.25.22-.5.42-.77.63-.45.36-.92.71-1.38,1.06a40.24,40.24,0,0,1-3.88-6.18A69.09,69.09,0,0,0,32.23,56.92Z"/><path class="cls-1" d="M73.06,85.87a42.68,42.68,0,0,1-42.63.68c.46-.08.92-.17,1.37-.27l1.05-.23c.59-.14,1.17-.28,1.76-.44s1.17-.32,1.75-.49q2.27-.69,4.48-1.58a24.68,24.68,0,0,0,2.5-1.16c.55-.29,1.1-.61,1.64-.94.21-.14.45-.27.66-.43.54-.35,1.07-.74,1.59-1.13l.63-.51c.23-.19.47-.39.69-.59l.34-.3c.33-.31.66-.62,1-1l.3-.31c.51-.54,1-1.09,1.45-1.67h0l.2.17c.51.44,1,.86,1.57,1.27.3.24.6.46.9.68.61.46,1.23.89,1.87,1.31.49.32,1,.62,1.47.93l.58.35.58.33c.47.27.94.53,1.42.78l.33.17c.24.14.49.25.74.38.8.39,1.62.77,2.44,1.11.33.14.64.27,1,.39s.82.33,1.25.48l.81.29c.49.17,1,.33,1.47.47.09,0,.18.06.27.09l1.39.39c.62.16,1.24.32,1.86.46C72.18,85.7,72.61,85.79,73.06,85.87Z"/><path class="cls-1" d="M52.1,73.59l.61.53.36.31Zm17.65,9.66c1,.28,2,.53,3,.74C71.77,83.78,70.75,83.53,69.75,83.25Zm3,.74q.6.14,1.2.24h0ZM51.63,75.55h0l.21.17Zm24.89,9.11-1.25-.21q-.54.38-1.08.72c-.37.24-.75.47-1.13.7-.45-.08-.88-.17-1.31-.27a41.86,41.86,0,0,1-39.95.68c-.45.1-.91.19-1.37.27-.42-.23-.82-.46-1.22-.7s-.78-.47-1.16-.72l-1.31.2-.1,0,1.8,1.08h0l.29.17.31.18a43.6,43.6,0,0,0,45.33-.68l.3-.19,1.93-1.24Z"/><path class="cls-1" d="M85.16,68.83c-.7.07-1.4.11-2.1.15h0a45.44,45.44,0,0,1-14.69-1.46l-.78-.21L66.62,67l-.37-.12-.45-.14-.37-.13L65,66.48a36.23,36.23,0,0,1-5.85-2.71l-.71-.42-.31-.19-.84-.54c-.18-.1-.36-.23-.53-.34-.32-.23-.74-.51-1.22-.88s-.93-.72-1.43-1.14l-.39-.33-.39-.34c-.42-.37-.85-.76-1.27-1.17L51.61,58l-.45-.45c-.14-.14-.27-.27-.39-.41l-.06-.07A39.68,39.68,0,0,1,46,51c-.15-.21-.28-.42-.42-.65h0c-.5-.83-1-1.69-1.41-2.51l-.7-1.62c0-.1-.09-.2-.13-.31l0-.05a.33.33,0,0,0,0-.06,9.51,9.51,0,0,1-.48-1.21,11.6,11.6,0,0,1-.54-2.13c-.06-.29-.1-.59-.15-.88a1.11,1.11,0,0,1,0-.17c0-.28-.08-.56-.11-.82-.12-.83-.2-1.67-.24-2.5,0-.33,0-.65,0-1,0-.15,0-.32,0-.47v-.21c0-.13,0-.27,0-.4,0-.62.08-1.23.16-1.84l.09-.69q.12-.76.27-1.47c0-.23.11-.45.17-.68l.06-.24c.07-.3.15-.59.24-.88s.25-.8.39-1.2A21.3,21.3,0,0,1,44,26.93l.16-.35a24.58,24.58,0,0,1,4.77-6.67,16.22,16.22,0,0,1,12.52-4.7,17.58,17.58,0,0,0-1.53,1.31,26.15,26.15,0,0,0-.67,37.21,36.47,36.47,0,0,0,2.84,2.67,49.15,49.15,0,0,0,9.22,6.1A145,145,0,0,0,85.16,68.83Z"/><path class="cls-1" d="M41.71,37.12c0-.16,0-.31,0-.47a.74.74,0,0,1,0-.21C41.71,36.66,41.71,36.9,41.71,37.12Z"/></g><g id="Layer_2" data-name="Layer 2"><path class="cls-1" d="M70.52,11A46,46,0,0,1,92.87,35.87a43.1,43.1,0,0,1-1.42,33.76,44.82,44.82,0,0,1-10.54,14,45.3,45.3,0,0,1-15.2,9,46,46,0,0,1-34.9-1.87,46.35,46.35,0,0,1-23.71-26A44.37,44.37,0,0,1,4.6,46.8c.17-1.51.3-3,.53-4.52s.6-3,1-4.43.93-2.88,1.45-4.3l1.86-4.14A43.34,43.34,0,0,1,20.86,15.53a44.31,44.31,0,0,1,15.85-8A47.09,47.09,0,0,1,54.08,6.16,48.06,48.06,0,0,1,70.52,11Zm-.28.56A40.37,40.37,0,0,0,54,7.71a40.78,40.78,0,0,0-16.19,3,43.13,43.13,0,0,0-13.48,8.76,43.62,43.62,0,0,0-9.22,12.73A41.53,41.53,0,0,0,13,62.67a40,40,0,0,0,7.6,13.71A40.87,40.87,0,0,0,33,86.2a41.51,41.51,0,0,0,55.59-18,42.92,42.92,0,0,0,4.62-15.6,42,42,0,0,0-1.63-16.36,40.91,40.91,0,0,0-8.06-14.56c-1-1-1.91-2.06-2.92-3s-2.1-1.87-3.21-2.73-2.31-1.61-3.49-2.37Z"/></g></svg>